<svg width="205" height="205" viewBox="0 0 205 205" fill="none" xmlns="http://www.w3.org/2000/svg">
<path d="M5.85693 26.3574V46.8574H26.3569H46.8569V26.3574V5.85742H26.3569H5.85693V26.3574ZM40.9998 26.3574V41.0003H26.3569H11.7141V26.3574V11.7146H26.3569H40.9998V26.3574Z" fill="#F84F39"/>
<path d="M17.5713 26.3574V35.1431H26.357H35.1427V26.3574V17.5716H26.357H17.5713V26.3574Z" fill="#F84F39"/>
<path d="M64.4282 11.7146V17.5718H67.3568H70.2854V11.7146V5.85749H67.3568H64.4282V11.7146Z" fill="#F84F39"/>
<path d="M76.1427 8.78592V11.7145H79.0712H81.9998V14.6431V17.5716H79.0712H76.1427V23.4288V29.2859H81.9998H87.8569V32.2145V35.1431H79.0712H70.2855V38.0716V41.0002H67.3569H64.4284V35.1431V29.2859H67.3569H70.2855V26.3573V23.4288H61.4998H52.7141V26.3573V29.2859H55.6426H58.5712V32.2145V35.1431H55.6426H52.7141V41.0002V46.8573H55.6426H58.5712V49.7859V52.7145H49.7855H40.9998V55.6431V58.5716H52.7141H64.4284V64.4288V70.2859H67.3569H70.2855V64.4288V58.5716H73.2141H76.1427V61.5002V64.4288H79.0712H81.9998V61.5002V58.5716H84.9284H87.8569V67.3573V76.1431H84.9284H81.9998V73.2145V70.2859H79.0712H76.1427V76.1431V82.0002H81.9998H87.8569V84.9288V87.8573H90.7855H93.7141V93.7145V99.5716H87.8569H81.9998V102.5V105.429H79.0712H76.1427V99.5716V93.7145H79.0712H81.9998V90.7859V87.8573H73.2141H64.4284V84.9288V82.0002H67.3569H70.2855V79.0716V76.1431H64.4284H58.5712V84.9288V93.7145H55.6426H52.7141V90.7859V87.8573H46.8569H40.9998V84.9288V82.0002H46.8569H52.7141V79.0716V76.1431H35.1426H17.5712V67.3573V58.5716H20.4998H23.4284V61.5002V64.4288H26.3569H29.2855V67.3573V70.2859H43.9284H58.5712V67.3573V64.4288H46.8569H35.1426V58.5716V52.7145H20.4998H5.85693V58.5716V64.4288H8.78551H11.7141V70.2859V76.1431H8.78551H5.85693V79.0716V82.0002H11.7141H17.5712V84.9288V87.8573H20.4998H23.4284V90.7859V93.7145H17.5712H11.7141V90.7859V87.8573H8.78551H5.85693V90.7859V93.7145H8.78551H11.7141V96.6431V99.5716H8.78551H5.85693V102.5V105.429H11.7141H17.5712V108.357V111.286H11.7141H5.85693V131.786V152.286H8.78551H11.7141V140.572V128.857H14.6426H17.5712V125.929V123H20.4998H23.4284V125.929V128.857H29.2855H35.1426V125.929V123H29.2855H23.4284V114.214V105.429H26.3569H29.2855V108.357V111.286H32.2141H35.1426V114.214V117.143H40.9998H46.8569V120.072V123H43.9284H40.9998V125.929V128.857H46.8569H52.7141V120.072V111.286H55.6426H58.5712V108.357V105.429H67.3569H76.1427V108.357V111.286H79.0712H81.9998V108.357V105.429H87.8569H93.7141V102.5V99.5716H99.5712H105.428V102.5V105.429H102.5H99.5712V108.357V111.286H93.7141H87.8569V117.143V123H84.9284H81.9998V120.072V117.143H79.0712H76.1427V123V128.857H81.9998H87.8569V131.786V134.714H76.1427H64.4284V137.643V140.572H61.4998H58.5712V137.643V134.714H49.7855H40.9998V137.643V140.572H43.9284H46.8569V143.5V146.429H43.9284H40.9998V149.357V152.286H43.9284H46.8569V149.357V146.429H49.7855H52.7141V155.214V164H58.5712H64.4284V178.643V193.286H73.2141H81.9998V196.214V199.143H96.6427H111.286V196.214V193.286H108.357H105.428V190.357V187.429H111.286H117.143V184.5V181.572H123H128.857V178.643V175.714H123H117.143V178.643V181.572H111.286H105.428V178.643V175.714H108.357H111.286V172.786V169.857H114.214H117.143V166.929V164H114.214H111.286V161.072V158.143H117.143H123V164V169.857H134.714H146.428V172.786V175.714H143.5H140.571V178.643V181.572H137.643H134.714V184.5V187.429H128.857H123V190.357V193.286H128.857H134.714V196.214V199.143H143.5H152.286V196.214V193.286H155.214H158.143V196.214V199.143H164H169.857V196.214V193.286H166.928H164V187.429V181.572H161.071H158.143V184.5V187.429H155.214H152.286V184.5V181.572H149.357H146.428V178.643V175.714H158.143H169.857V178.643V181.572H175.714H181.571V184.5V187.429H178.643H175.714V190.357V193.286H181.571H187.428V196.214V199.143H190.357H193.286V196.214V193.286H190.357H187.428V190.357V187.429H190.357H193.286V184.5V181.572H187.428H181.571V178.643V175.714H178.643H175.714V172.786V169.857H181.571H187.428V172.786V175.714H190.357H193.286V166.929V158.143H196.214H199.143V152.286V146.429H196.214H193.286V152.286V158.143H190.357H187.428V155.214V152.286H184.5H181.571V149.357V146.429H184.5H187.428V143.5V140.572H190.357H193.286V137.643V134.714H196.214H199.143V131.786V128.857H196.214H193.286V125.929V123H190.357H187.428V120.072V117.143H190.357H193.286V114.214V111.286H196.214H199.143V108.357V105.429H196.214H193.286V102.5V99.5716H190.357H187.428V96.6431V93.7145H190.357H193.286V90.7859V87.8573H196.214H199.143V84.9288V82.0002H193.286H187.428V87.8573V93.7145H184.5H181.571V96.6431V99.5716H184.5H187.428V108.357V117.143H184.5H181.571V111.286V105.429H178.643H175.714V102.5V99.5716H169.857H164V96.6431V93.7145H161.071H158.143V90.7859V87.8573H161.071H164V84.9288V82.0002H172.786H181.571V79.0716V76.1431H184.5H187.428V73.2145V70.2859H190.357H193.286V67.3573V64.4288H196.214H199.143V61.5002V58.5716H196.214H193.286V55.6431V52.7145H190.357H187.428V55.6431V58.5716H184.5H181.571V55.6431V52.7145H178.643H175.714V55.6431V58.5716H178.643H181.571V61.5002V64.4288H175.714H169.857V70.2859V76.1431H166.928H164V67.3573V58.5716H166.928H169.857V55.6431V52.7145H166.928H164V55.6431V58.5716H161.071H158.143V55.6431V52.7145H155.214H152.286V55.6431V58.5716H155.214H158.143V61.5002V64.4288H155.214H152.286V67.3573V70.2859H146.428H140.571V67.3573V64.4288H143.5H146.428V61.5002V58.5716H143.5H140.571V61.5002V64.4288H137.643H134.714V67.3573V70.2859H128.857H123V73.2145V76.1431H120.071H117.143V79.0716V82.0002H114.214H111.286V79.0716V76.1431H108.357H105.428V79.0716V82.0002H102.5H99.5712V84.9288V87.8573H96.6427H93.7141V82.0002V76.1431H96.6427H99.5712V73.2145V70.2859H102.5H105.428V67.3573V64.4288H108.357H111.286V61.5002V58.5716H114.214H117.143V61.5002V64.4288H123H128.857V58.5716V52.7145H134.714H140.571V43.9288V35.1431H143.5H146.428V41.0002V46.8573H149.357H152.286V41.0002V35.1431H149.357H146.428V32.2145V29.2859H149.357H152.286V26.3573V23.4288H149.357H146.428V20.5002V17.5716H143.5H140.571V20.5002V23.4288H137.643H134.714V20.5002V17.5716H131.786H128.857V14.6431V11.7145H137.643H146.428V8.78592V5.85735H125.928H105.428V8.78592V11.7145H108.357H111.286V14.6431V17.5716H114.214H117.143V23.4288V29.2859H114.214H111.286V26.3573V23.4288H108.357H105.428V20.5002V17.5716H102.5H99.5712V14.6431V11.7145H93.7141H87.8569V8.78592V5.85735H81.9998H76.1427V8.78592ZM123 14.6431V17.5716H120.071H117.143V14.6431V11.7145H120.071H123V14.6431ZM93.7141 20.5002V23.4288H87.8569H81.9998V20.5002V17.5716H87.8569H93.7141V20.5002ZM134.714 26.3573V29.2859H137.643H140.571V32.2145V35.1431H137.643H134.714V32.2145V29.2859H131.786H128.857V32.2145V35.1431H125.928H123V41.0002V46.8573H125.928H128.857V43.9288V41.0002H131.786H134.714V43.9288V46.8573H131.786H128.857V49.7859V52.7145H125.928H123V55.6431V58.5716H120.071H117.143V55.6431V52.7145H120.071H123V49.7859V46.8573H120.071H117.143V43.9288V41.0002H114.214H111.286V46.8573V52.7145H102.5H93.7141V46.8573V41.0002H90.7855H87.8569V46.8573V52.7145H84.9284H81.9998V55.6431V58.5716H79.0712H76.1427V52.7145V46.8573H73.2141H70.2855V43.9288V41.0002H73.2141H76.1427V43.9288V46.8573H79.0712H81.9998V43.9288V41.0002H84.9284H87.8569V38.0716V35.1431H90.7855H93.7141V32.2145V29.2859H96.6427H99.5712V32.2145V35.1431H96.6427H93.7141V38.0716V41.0002H96.6427H99.5712V43.9288V46.8573H102.5H105.428V38.0716V29.2859H108.357H111.286V32.2145V35.1431H117.143H123V32.2145V29.2859H125.928H128.857V26.3573V23.4288H131.786H134.714V26.3573ZM64.4284 43.9288V46.8573H61.4998H58.5712V43.9288V41.0002H61.4998H64.4284V43.9288ZM70.2855 55.6431V58.5716H67.3569H64.4284V55.6431V52.7145H67.3569H70.2855V55.6431ZM99.5712 61.5002V64.4288H96.6427H93.7141V61.5002V58.5716H96.6427H99.5712V61.5002ZM187.428 67.3573V70.2859H184.5H181.571V73.2145V76.1431H178.643H175.714V73.2145V70.2859H178.643H181.571V67.3573V64.4288H184.5H187.428V67.3573ZM134.714 79.0716V82.0002H137.643H140.571V79.0716V76.1431H146.428H152.286V79.0716V82.0002H155.214H158.143V79.0716V76.1431H161.071H164V79.0716V82.0002H161.071H158.143V84.9288V87.8573H155.214H152.286V93.7145V99.5716H149.357H146.428V96.6431V93.7145H140.571H134.714V87.8573V82.0002H128.857H123V79.0716V76.1431H128.857H134.714V79.0716ZM35.1426 84.9288V87.8573H29.2855H23.4284V84.9288V82.0002H29.2855H35.1426V84.9288ZM111.286 84.9288V87.8573H108.357H105.428V90.7859V93.7145H111.286H117.143V90.7859V87.8573H120.071H123V90.7859V93.7145H125.928H128.857V96.6431V99.5716H131.786H134.714V102.5V105.429H128.857H123V102.5V99.5716H120.071H117.143V102.5V105.429H114.214H111.286V102.5V99.5716H108.357H105.428V96.6431V93.7145H102.5H99.5712V90.7859V87.8573H102.5H105.428V84.9288V82.0002H108.357H111.286V84.9288ZM29.2855 96.6431V99.5716H26.3569H23.4284V102.5V105.429H20.4998H17.5712V102.5V99.5716H20.4998H23.4284V96.6431V93.7145H26.3569H29.2855V96.6431ZM46.8569 96.6431V99.5716H43.9284H40.9998V102.5V105.429H43.9284H46.8569V108.357V111.286H40.9998H35.1426V105.429V99.5716H38.0712H40.9998V96.6431V93.7145H43.9284H46.8569V96.6431ZM64.4284 96.6431V99.5716H61.4998H58.5712V102.5V105.429H55.6426H52.7141V102.5V99.5716H55.6426H58.5712V96.6431V93.7145H61.4998H64.4284V96.6431ZM164 102.5V105.429H169.857H175.714V108.357V111.286H169.857H164V108.357V105.429H161.071H158.143V108.357V111.286H155.214H152.286V114.214V117.143H161.071H169.857V120.072V123H166.928H164V125.929V128.857H161.071H158.143V131.786V134.714H164H169.857V131.786V128.857H172.786H175.714V123V117.143H178.643H181.571V120.072V123H184.5H187.428V131.786V140.572H184.5H181.571V134.714V128.857H178.643H175.714V134.714V140.572H169.857H164V143.5V146.429H161.071H158.143V140.572V134.714H155.214H152.286V140.572V146.429H149.357H146.428V143.5V140.572H143.5H140.571V143.5V146.429H137.643H134.714V149.357V152.286H131.786H128.857V149.357V146.429H131.786H134.714V140.572V134.714H140.571H146.428V131.786V128.857H152.286H158.143V125.929V123H146.428H134.714V125.929V128.857H123H111.286V125.929V123H102.5H93.7141V120.072V117.143H96.6427H99.5712V114.214V111.286H102.5H105.428V114.214V117.143H108.357H111.286V114.214V111.286H117.143H123V114.214V117.143H125.928H128.857V120.072V123H131.786H134.714V117.143V111.286H143.5H152.286V108.357V105.429H155.214H158.143V102.5V99.5716H161.071H164V102.5ZM99.5712 131.786V134.714H96.6427H93.7141V140.572V146.429H84.9284H76.1427V143.5V140.572H81.9998H87.8569V137.643V134.714H90.7855H93.7141V131.786V128.857H96.6427H99.5712V131.786ZM128.857 137.643V140.572H125.928H123V146.429V152.286H120.071H117.143V149.357V146.429H111.286H105.428V149.357V152.286H102.5H99.5712V155.214V158.143H102.5H105.428V161.072V164H108.357H111.286V166.929V169.857H105.428H99.5712V164V158.143H93.7141H87.8569V161.072V164H90.7855H93.7141V166.929V169.857H87.8569H81.9998V175.714V181.572H84.9284H87.8569V178.643V175.714H93.7141H99.5712V178.643V181.572H96.6427H93.7141V184.5V187.429H90.7855H87.8569V190.357V193.286H84.9284H81.9998V190.357V187.429H76.1427H70.2855V184.5V181.572H73.2141H76.1427V178.643V175.714H73.2141H70.2855V169.857V164H67.3569H64.4284V161.072V158.143H67.3569H70.2855V155.214V152.286H64.4284H58.5712V149.357V146.429H61.4998H64.4284V143.5V140.572H67.3569H70.2855V146.429V152.286H73.2141H76.1427V158.143V164H79.0712H81.9998V161.072V158.143H84.9284H87.8569V155.214V152.286H93.7141H99.5712V149.357V146.429H102.5H105.428V140.572V134.714H117.143H128.857V137.643ZM146.428 155.214V158.143H143.5H140.571V161.072V164H134.714H128.857V161.072V158.143H134.714H140.571V155.214V152.286H143.5H146.428V155.214ZM169.857 161.072V169.857H161.071H152.286V161.072V152.286H161.071H169.857V161.072ZM181.571 158.143V164H178.643H175.714V158.143V152.286H178.643H181.571V158.143ZM146.428 184.5V187.429H149.357H152.286V190.357V193.286H146.428H140.571V187.429V181.572H143.5H146.428V184.5Z" fill="#F84F39"/>
<path d="M140.571 84.9289V87.8574H143.5H146.428V84.9289V82.0003H143.5H140.571V84.9289Z" fill="#F84F39"/>
<path d="M158.143 161.071V164H161.071H164V161.071V158.143H161.071H158.143V161.071Z" fill="#F84F39"/>
<path d="M158.143 26.3574V46.8574H178.643H199.143V26.3574V5.85742H178.643H158.143V26.3574ZM193.285 26.3574V41.0003H178.643H164V26.3574V11.7146H178.643H193.285V26.3574Z" fill="#F84F39"/>
<path d="M169.857 26.3574V35.1431H178.643H187.428V26.3574V17.5716H178.643H169.857V26.3574Z" fill="#F84F39"/>
<path d="M52.7139 14.6432V17.5718H55.6424H58.571V14.6432V11.7146H55.6424H52.7139V14.6432Z" fill="#F84F39"/>
<path d="M169.857 90.7858V93.7144H172.786H175.714V90.7858V87.8572H172.786H169.857V90.7858Z" fill="#F84F39"/>
<path d="M64.4284 114.215V117.143H61.4999H58.5713V123V128.857H64.4284H70.2856V125.929V123H67.357H64.4284V120.072V117.143H67.357H70.2856V114.215V111.286H67.357H64.4284V114.215Z" fill="#F84F39"/>
<path d="M17.5713 140.572V146.429H20.4999H23.4284V149.358V152.286H26.357H29.2856V149.358V146.429H32.2141H35.1427V143.5V140.572H32.2141H29.2856V143.5V146.429H26.357H23.4284V140.572V134.715H20.4999H17.5713V140.572Z" fill="#F84F39"/>
<path d="M5.85693 178.643V199.143H26.3569H46.8569V178.643V158.143H26.3569H5.85693V178.643ZM40.9998 178.643V193.286H26.3569H11.7141V178.643V164H26.3569H40.9998V178.643Z" fill="#F84F39"/>
<path d="M17.5713 178.643V187.429H26.357H35.1427V178.643V169.857H26.357H17.5713V178.643Z" fill="#F84F39"/>
<path d="M52.7139 184.5V199.143H55.6424H58.571V184.5V169.857H55.6424H52.7139V184.5Z" fill="#F84F39"/>
</svg>
